<mxfile host="app.diagrams.net" modified="2023-06-08T10:30:55.555Z" agent="Mozilla/5.0 (Windows NT 10.0; Win64; x64; rv:109.0) Gecko/20100101 Firefox/113.0" etag="whUsecys4uQgCzaE7ssS" version="21.3.7" type="github">
  <diagram id="C5RBs43oDa-KdzZeNtuy" name="Page-1">
    <mxGraphModel dx="1434" dy="774" grid="1" gridSize="10" guides="1" tooltips="1" connect="1" arrows="1" fold="1" page="1" pageScale="1" pageWidth="827" pageHeight="1169" math="0" shadow="0">
      <root>
        <mxCell id="WIyWlLk6GJQsqaUBKTNV-0" />
        <mxCell id="WIyWlLk6GJQsqaUBKTNV-1" parent="WIyWlLk6GJQsqaUBKTNV-0" />
        <mxCell id="wru_84MOwSdhL8JeZSjE-2" value="" style="edgeStyle=orthogonalEdgeStyle;rounded=0;orthogonalLoop=1;jettySize=auto;html=1;" edge="1" parent="WIyWlLk6GJQsqaUBKTNV-1" source="wru_84MOwSdhL8JeZSjE-0" target="wru_84MOwSdhL8JeZSjE-1">
          <mxGeometry relative="1" as="geometry" />
        </mxCell>
        <mxCell id="wru_84MOwSdhL8JeZSjE-0" value="START" style="rounded=0;whiteSpace=wrap;html=1;" vertex="1" parent="WIyWlLk6GJQsqaUBKTNV-1">
          <mxGeometry x="350" y="40" width="120" height="60" as="geometry" />
        </mxCell>
        <mxCell id="wru_84MOwSdhL8JeZSjE-7" value="" style="edgeStyle=orthogonalEdgeStyle;rounded=0;orthogonalLoop=1;jettySize=auto;html=1;" edge="1" parent="WIyWlLk6GJQsqaUBKTNV-1" source="wru_84MOwSdhL8JeZSjE-1" target="wru_84MOwSdhL8JeZSjE-3">
          <mxGeometry relative="1" as="geometry" />
        </mxCell>
        <mxCell id="wru_84MOwSdhL8JeZSjE-1" value="Draw Logo (Art)" style="rounded=1;whiteSpace=wrap;html=1;" vertex="1" parent="WIyWlLk6GJQsqaUBKTNV-1">
          <mxGeometry x="350" y="150" width="120" height="60" as="geometry" />
        </mxCell>
        <mxCell id="wru_84MOwSdhL8JeZSjE-6" value="" style="edgeStyle=orthogonalEdgeStyle;rounded=0;orthogonalLoop=1;jettySize=auto;html=1;" edge="1" parent="WIyWlLk6GJQsqaUBKTNV-1" source="wru_84MOwSdhL8JeZSjE-3" target="wru_84MOwSdhL8JeZSjE-5">
          <mxGeometry relative="1" as="geometry" />
        </mxCell>
        <mxCell id="wru_84MOwSdhL8JeZSjE-3" value="Get Bid infromation" style="rounded=1;whiteSpace=wrap;html=1;" vertex="1" parent="WIyWlLk6GJQsqaUBKTNV-1">
          <mxGeometry x="350" y="260" width="120" height="60" as="geometry" />
        </mxCell>
        <mxCell id="wru_84MOwSdhL8JeZSjE-12" value="" style="edgeStyle=orthogonalEdgeStyle;rounded=0;orthogonalLoop=1;jettySize=auto;html=1;entryX=0.5;entryY=1;entryDx=0;entryDy=0;" edge="1" parent="WIyWlLk6GJQsqaUBKTNV-1" source="wru_84MOwSdhL8JeZSjE-5" target="wru_84MOwSdhL8JeZSjE-11">
          <mxGeometry relative="1" as="geometry" />
        </mxCell>
        <mxCell id="wru_84MOwSdhL8JeZSjE-19" value="&lt;div&gt;Yes&lt;/div&gt;" style="edgeLabel;html=1;align=center;verticalAlign=middle;resizable=0;points=[];" vertex="1" connectable="0" parent="wru_84MOwSdhL8JeZSjE-12">
          <mxGeometry x="-0.0767" relative="1" as="geometry">
            <mxPoint as="offset" />
          </mxGeometry>
        </mxCell>
        <mxCell id="wru_84MOwSdhL8JeZSjE-17" value="" style="edgeStyle=orthogonalEdgeStyle;rounded=0;orthogonalLoop=1;jettySize=auto;html=1;" edge="1" parent="WIyWlLk6GJQsqaUBKTNV-1" source="wru_84MOwSdhL8JeZSjE-5" target="wru_84MOwSdhL8JeZSjE-14">
          <mxGeometry relative="1" as="geometry" />
        </mxCell>
        <mxCell id="wru_84MOwSdhL8JeZSjE-18" value="No" style="edgeLabel;html=1;align=center;verticalAlign=middle;resizable=0;points=[];" vertex="1" connectable="0" parent="wru_84MOwSdhL8JeZSjE-17">
          <mxGeometry x="-0.1981" y="-1" relative="1" as="geometry">
            <mxPoint as="offset" />
          </mxGeometry>
        </mxCell>
        <mxCell id="wru_84MOwSdhL8JeZSjE-5" value="More bidders" style="rhombus;whiteSpace=wrap;html=1;" vertex="1" parent="WIyWlLk6GJQsqaUBKTNV-1">
          <mxGeometry x="352" y="380" width="116" height="110" as="geometry" />
        </mxCell>
        <mxCell id="wru_84MOwSdhL8JeZSjE-13" style="edgeStyle=orthogonalEdgeStyle;rounded=0;orthogonalLoop=1;jettySize=auto;html=1;entryX=1.003;entryY=0.421;entryDx=0;entryDy=0;entryPerimeter=0;" edge="1" parent="WIyWlLk6GJQsqaUBKTNV-1" source="wru_84MOwSdhL8JeZSjE-11" target="wru_84MOwSdhL8JeZSjE-3">
          <mxGeometry relative="1" as="geometry">
            <Array as="points">
              <mxPoint x="600" y="285" />
            </Array>
          </mxGeometry>
        </mxCell>
        <mxCell id="wru_84MOwSdhL8JeZSjE-11" value="Clear screen" style="rounded=1;whiteSpace=wrap;html=1;" vertex="1" parent="WIyWlLk6GJQsqaUBKTNV-1">
          <mxGeometry x="540" y="340" width="120" height="60" as="geometry" />
        </mxCell>
        <mxCell id="wru_84MOwSdhL8JeZSjE-16" value="" style="edgeStyle=orthogonalEdgeStyle;rounded=0;orthogonalLoop=1;jettySize=auto;html=1;" edge="1" parent="WIyWlLk6GJQsqaUBKTNV-1" source="wru_84MOwSdhL8JeZSjE-14" target="wru_84MOwSdhL8JeZSjE-15">
          <mxGeometry relative="1" as="geometry" />
        </mxCell>
        <mxCell id="wru_84MOwSdhL8JeZSjE-14" value="Compute Highest Bid" style="rounded=1;whiteSpace=wrap;html=1;" vertex="1" parent="WIyWlLk6GJQsqaUBKTNV-1">
          <mxGeometry x="350" y="540" width="120" height="60" as="geometry" />
        </mxCell>
        <mxCell id="wru_84MOwSdhL8JeZSjE-15" value="Exit" style="rounded=1;whiteSpace=wrap;html=1;" vertex="1" parent="WIyWlLk6GJQsqaUBKTNV-1">
          <mxGeometry x="350" y="650" width="120" height="60" as="geometry" />
        </mxCell>
      </root>
    </mxGraphModel>
  </diagram>
</mxfile>
